<mxfile host="app.diagrams.net" modified="2023-09-25T06:40:00.789Z" agent="Mozilla/5.0 (X11; Ubuntu; Linux x86_64; rv:109.0) Gecko/20100101 Firefox/113.0" version="21.7.4" etag="QHxvtV5MiuPaT7vZJpcW" type="github">
  <diagram name="Page-1" id="Rwno3FglvF61qRB8URva">
    <mxGraphModel>
      <root>
        <mxCell id="0" />
        <mxCell id="1" parent="0" />
      </root>
    </mxGraphModel>
  </diagram>
</mxfile>
